<?xml version="1.0" standalone="no"?>
<!DOCTYPE svg PUBLIC "-//W3C//DTD SVG 20010904//EN"
 "http://www.w3.org/TR/2001/REC-SVG-20010904/DTD/svg10.dtd">
<svg version="1.0" xmlns="http://www.w3.org/2000/svg"
 width="226.000000pt" height="147.000000pt" viewBox="0 0 226.000000 147.000000"
 preserveAspectRatio="xMidYMid meet">

<g transform="translate(0.000000,147.000000) scale(0.100000,-0.100000)"
fill="#000000" stroke="none">
<path d="M2126 1430 c-42 -47 -44 -56 -14 -63 15 -4 34 5 68 33 78 65 80 70
27 70 -39 0 -49 -5 -81 -40z"/>
<path d="M30 1341 c0 -2 15 -29 34 -60 19 -31 44 -76 56 -101 l22 -45 -61
-103 -60 -102 44 0 c43 0 44 0 80 65 20 36 39 63 43 61 4 -2 21 -32 37 -65
l29 -61 48 0 48 0 -42 78 c-24 42 -74 134 -112 204 l-69 126 -49 4 c-26 1 -48
1 -48 -1z"/>
<path d="M298 1342 c-51 -4 -64 -29 -41 -76 9 -19 20 -33 24 -30 11 6 60 96
57 103 -2 3 -20 5 -40 3z"/>
<path d="M748 1332 c-38 -23 -62 -76 -54 -121 6 -40 43 -78 120 -123 48 -28
60 -60 34 -86 -18 -18 -79 -14 -116 8 -18 11 -35 20 -37 20 -3 0 -5 -16 -5
-35 0 -28 5 -37 28 -49 106 -55 210 -11 220 94 4 48 3 51 -35 87 -22 21 -60
50 -86 65 -37 21 -47 33 -47 53 0 40 40 53 98 33 26 -10 47 -16 48 -15 1 1 4
15 8 30 6 25 3 29 -28 42 -47 20 -115 18 -148 -3z"/>
<path d="M1155 1333 c-79 -41 -114 -104 -115 -202 0 -88 27 -142 88 -179 64
-37 148 -38 210 -2 39 22 43 27 38 54 -8 40 -10 41 -44 16 -46 -34 -109 -37
-152 -8 -71 48 -78 167 -15 236 29 32 39 37 75 36 26 -1 53 -10 72 -24 16 -12
31 -20 32 -18 31 46 34 57 23 66 -54 43 -155 55 -212 25z"/>
<path d="M458 1135 l3 -205 44 0 45 0 0 205 0 205 -47 0 -48 0 3 -205z"/>
<path d="M1500 1135 l0 -205 45 0 45 0 0 85 0 85 90 0 90 0 0 -85 0 -85 46 0
47 0 -7 31 c-3 17 -6 110 -6 205 l0 174 -42 0 -43 0 0 -82 0 -83 -87 -3 -88
-3 0 86 0 85 -45 0 -45 0 0 -205z"/>
<path d="M2018 1135 l3 -205 110 0 c113 0 114 0 121 45 3 18 -3 20 -69 23
l-73 3 0 54 0 55 54 0 c47 0 54 3 60 23 12 44 9 47 -54 47 l-60 0 0 50 0 50
70 0 70 0 0 30 0 30 -117 0 -118 0 3 -205z"/>
<path d="M345 460 l0 -300 30 0 30 0 0 300 0 300 -30 0 -30 0 0 -300z"/>
<path d="M2190 460 l0 -300 30 0 30 0 0 300 0 300 -30 0 -30 0 0 -300z"/>
<path d="M546 734 c-30 -30 -13 -74 29 -74 46 0 60 48 23 74 -28 20 -33 20
-52 0z"/>
<path d="M1262 734 c-37 -26 -23 -74 23 -74 42 0 59 44 29 74 -19 20 -24 20
-52 0z"/>
<path d="M1470 605 c0 -54 0 -55 -30 -55 -25 0 -30 -4 -30 -25 l0 -25 123 0
c122 0 124 0 122 23 -1 20 -7 22 -63 25 l-62 3 0 54 c0 54 0 55 -30 55 -30 0
-30 -1 -30 -55z"/>
<path d="M132 547 c-43 -16 -91 -63 -110 -107 -8 -19 -15 -61 -14 -92 0 -106
71 -186 172 -196 26 -2 64 1 84 8 31 10 36 16 36 42 0 25 -3 29 -17 23 -62
-26 -90 -28 -129 -9 -54 27 -84 75 -84 136 0 27 7 62 15 79 32 61 124 88 188
55 26 -15 27 -14 27 14 0 19 -7 33 -20 40 -32 17 -112 21 -148 7z"/>
<path d="M831 538 c-66 -34 -101 -83 -108 -151 -16 -160 121 -266 270 -208 20
8 27 17 27 37 0 21 -3 25 -17 19 -56 -22 -77 -27 -107 -21 -147 28 -157 248
-14 287 36 9 69 5 121 -16 14 -6 17 -2 17 19 0 31 -29 46 -100 53 -34 3 -56
-1 -89 -19z"/>
<path d="M1830 544 c-38 -16 -80 -52 -80 -67 0 -5 8 -15 17 -22 15 -11 23 -9
51 16 43 38 107 41 149 5 l28 -24 0 -146 0 -146 34 0 33 0 -4 148 c-3 131 -6
152 -26 184 -38 61 -128 84 -202 52z"/>
<path d="M540 355 l0 -195 30 0 30 0 0 195 0 195 -30 0 -30 0 0 -195z"/>
<path d="M1058 339 l-3 -211 -37 -34 c-31 -28 -45 -34 -83 -34 -49 0 -108 20
-137 47 -17 15 -19 15 -33 -3 -19 -25 -15 -35 23 -61 117 -79 288 -34 321 84
6 21 11 125 11 231 l0 192 -29 0 -30 0 -3 -211z"/>
<path d="M1260 355 l0 -195 30 0 30 0 0 195 0 195 -30 0 -30 0 0 -195z"/>
<path d="M1470 350 c0 -124 14 -164 66 -186 20 -8 56 -14 82 -12 42 3 47 6 50
28 3 24 0 25 -48 25 -78 0 -90 20 -90 146 l0 99 -30 0 -30 0 0 -100z"/>
<path d="M1815 359 c-55 -17 -85 -54 -85 -106 0 -58 59 -103 134 -103 56 0 86
16 86 45 0 22 -3 24 -19 15 -11 -5 -38 -10 -60 -10 -66 0 -101 49 -67 95 10
14 30 20 80 23 62 4 66 6 66 28 0 22 -4 24 -52 23 -29 0 -66 -5 -83 -10z"/>
</g>
</svg>
